<svg width="42" height="48" viewBox="0 0 42 48" fill="none" xmlns="http://www.w3.org/2000/svg">
<path d="M32.7244 0C27.6098 0 23.4488 4.00928 23.4488 8.93738V15.0623H18.5512V8.93738C18.5512 4.00928 14.3902 0 9.27561 0C4.16101 0 0 4.00928 0 8.93738V27.7654C0 30.3446 1.96914 32.488 4.53499 32.8748C4.13554 33.598 3.90788 34.4224 3.90788 35.2969C3.90788 41.302 7.89177 47.1288 8.06128 47.3738C8.33189 47.7649 8.7876 48 9.27561 48C9.76361 48 10.2193 47.7649 10.4899 47.3738C10.6594 47.1288 14.6433 41.302 14.6433 35.2969C14.6433 34.4224 14.416 33.598 14.0166 32.8748C16.5824 32.488 18.5516 30.3446 18.5516 27.7654V25.4062H23.4488V27.7654C23.4488 30.3446 25.4179 32.488 27.9838 32.8748C27.5843 33.598 27.357 34.4224 27.357 35.2969C27.357 41.302 31.3406 47.1288 31.5101 47.3738C31.7807 47.7649 32.2364 48 32.7244 48C33.2124 48 33.6681 47.7649 33.9387 47.3738C34.1082 47.1288 38.0921 41.302 38.0921 35.2969C38.0921 34.4224 37.8648 33.598 37.4654 32.8748C40.0309 32.488 42 30.3446 42 27.7654V8.93738C42 4.00928 37.839 0 32.7244 0ZM26.3677 8.93738C26.3677 5.56018 29.2194 2.8125 32.7244 2.8125C36.2294 2.8125 39.0811 5.56018 39.0811 8.93738V22.5938H26.3677V8.93738ZM9.27561 2.8125C12.7806 2.8125 15.6323 5.56018 15.6323 8.93738V22.5938H2.91894V8.93738C2.91894 5.56018 5.7706 2.8125 9.27561 2.8125ZM9.27409 43.7468C8.20799 41.7213 6.82681 38.4829 6.82681 35.2969C6.82681 33.9957 7.92522 32.9374 9.27561 32.9374C10.626 32.9374 11.7244 33.9957 11.7244 35.2969C11.7244 38.4723 10.3409 41.7169 9.27409 43.7468ZM13.1839 30.1249H5.36735C4.01734 30.1249 2.91894 29.0665 2.91894 27.7654V25.4062H15.6323V27.7654C15.6323 29.0665 14.5343 30.1249 13.1839 30.1249ZM18.5512 17.8748H23.4488V22.5938H18.5512V17.8748ZM32.7229 43.7468C31.6568 41.7213 30.2756 38.4829 30.2756 35.2969C30.2756 33.9957 31.374 32.9374 32.7244 32.9374C34.0748 32.9374 35.1732 33.9957 35.1732 35.2969C35.1732 38.4723 33.7897 41.7169 32.7229 43.7468ZM36.6327 30.1249H28.8161C27.4661 30.1249 26.3677 29.0665 26.3677 27.7654V25.4062H39.0811V27.7654C39.0811 29.0665 37.983 30.1249 36.6327 30.1249Z" fill="white"/>
</svg>
